<?xml version="1.0" encoding="UTF-8" standalone="no"?>
<!-- Uploaded to: SVG Repo, www.svgrepo.com, Generator: SVG Repo Mixer Tools -->

<svg
   height="40px"
   width="40px"
   version="1.1"
   id="Layer_1"
   viewBox="0 0 512.213 512.213"
   xml:space="preserve"
   sodipodi:docname="house-svgrepo-com (1).svg"
   inkscape:version="1.3.2 (091e20e, 2023-11-25, custom)"
   xmlns:inkscape="http://www.inkscape.org/namespaces/inkscape"
   xmlns:sodipodi="http://sodipodi.sourceforge.net/DTD/sodipodi-0.dtd"
   xmlns="http://www.w3.org/2000/svg"
   xmlns:svg="http://www.w3.org/2000/svg"><defs
   id="defs6">
	
	
	
	
	
	
</defs><sodipodi:namedview
   id="namedview6"
   pagecolor="#ffffff"
   bordercolor="#000000"
   borderopacity="0.25"
   inkscape:showpageshadow="2"
   inkscape:pageopacity="0.0"
   inkscape:pagecheckerboard="0"
   inkscape:deskcolor="#d1d1d1"
   inkscape:zoom="1.0075"
   inkscape:cx="400"
   inkscape:cy="399.50372"
   inkscape:window-width="1920"
   inkscape:window-height="1017"
   inkscape:window-x="1912"
   inkscape:window-y="-8"
   inkscape:window-maximized="1"
   inkscape:current-layer="Layer_1" />
<path
   style="fill:#ffffff"
   d="M 145.173,94.08 V 42.88 H 162.24 V 8.747 H 59.84 V 42.88 h 17.067 v 110.933 l -47.787,40.96 c -6.827,6.827 -2.56,18.773 6.827,18.773 h 40.96 v 256 H 59.84 v 34.133 h 392.533 v -34.133 h -17.067 v -256 h 40.96 c 9.387,0 13.653,-11.947 6.827,-17.92 L 286.827,21.547 c -17.067,-16.213 -44.373,-16.213 -61.44,0 z"
   id="path1" /><path
   style="fill:#ffa800"
   d="m 349.973,308.267 -93.867,145.067 -94.72,-145.067 c -29.867,-40.107 -26.453,-94.72 5.973,-131.413 v 0 c 46.933,-52.053 128.853,-52.053 175.787,0 v 0 c 34.134,36.693 36.694,92.159 6.827,131.413"
   id="path2" /><path
   style="fill:#63d3fd"
   d="m 306.453,246.827 c 0,-27.307 -22.187,-50.347 -50.347,-50.347 -28.16,0 -50.347,22.187 -50.347,50.347 0,28.16 22.187,50.347 50.347,50.347 28.161,-10e-4 50.347,-22.187 50.347,-50.347"
   id="path3" /><path
   d="M 452.373,512.213 H 59.84 c -5.12,0 -8.533,-3.413 -8.533,-8.533 v -34.133 c 0,-5.12 3.413,-8.533 8.533,-8.533 h 8.533 V 222.08 H 35.947 c -7.68,0 -15.36,-5.12 -17.92,-11.947 -2.56,-6.827 -0.853,-15.36 5.12,-21.333 L 68.374,149.547 V 51.413 H 59.84 C 54.72,51.413 51.307,48 51.307,42.88 V 8.747 c 0,-5.12 3.413,-8.533 8.533,-8.533 h 102.4 c 5.12,0 8.533,3.413 8.533,8.533 V 42.88 c 0,5.12 -3.413,8.533 -8.533,8.533 h -8.533 v 23.04 L 219.414,14.72 c 20.48,-19.627 52.907,-19.627 73.387,0 L 489.067,188.8 c 5.973,5.12 7.68,13.653 5.12,20.48 -2.56,7.68 -9.387,11.947 -17.92,11.947 H 443.84 V 460.16 h 8.533 c 5.12,0 8.533,3.413 8.533,8.533 v 34.133 c 10e-4,5.974 -3.413,9.387 -8.533,9.387 z m -384,-17.066 H 443.84 V 478.08 h -8.533 c -5.12,0 -8.533,-3.413 -8.533,-8.533 v -256 c 0,-5.12 3.413,-8.533 8.533,-8.533 h 40.96 c 0,0 0.853,0 1.707,-0.853 0.853,-0.853 0,-1.707 -0.853,-1.707 L 280.853,28.373 c -14.507,-13.653 -35.84,-13.653 -49.493,0 l -80.213,73.387 c -2.56,2.56 -5.973,2.56 -9.387,1.707 -3.413,-2.56 -5.12,-5.973 -5.12,-9.387 v -51.2 c 0,-5.12 3.413,-8.533 8.533,-8.533 h 8.533 V 17.28 H 68.373 v 17.067 h 8.533 c 5.12,0 8.533,3.413 8.533,8.533 v 110.933 c 0,2.56 -0.853,5.12 -2.56,6.827 L 35.093,201.6 c -0.853,0.853 -0.853,1.707 -0.853,2.56 0.853,0.853 0.853,0.853 1.707,0.853 h 40.96 c 5.12,0 8.533,3.413 8.533,8.533 v 256 c 0,5.12 -3.413,8.533 -8.533,8.533 h -8.533 v 17.068 z"
   id="path4" /><path
   d="m 256.107,461.867 c -2.56,0 -5.973,-1.707 -6.827,-4.267 L 154.56,312.533 c -31.573,-42.667 -29.013,-102.4 6.827,-142.507 24.747,-27.307 58.88,-42.667 94.72,-42.667 35.84,0 69.973,15.36 94.72,41.813 35.84,40.107 38.4,99.84 6.827,143.36 l -93.867,144.213 c -1.707,3.415 -5.12,5.122 -7.68,5.122 z m 0,-316.587 c -30.72,0 -60.587,13.653 -81.92,36.693 -30.72,34.133 -33.28,85.333 -5.973,121.173 L 256.107,437.973 343.147,304 v 0 c 27.307,-36.693 24.747,-87.893 -5.973,-122.027 -20.481,-23.04 -50.347,-36.693 -81.067,-36.693 z"
   id="path5" /><path
   d="m 256.107,305.707 c -32.427,0 -58.88,-26.453 -58.88,-58.88 0,-32.427 26.453,-58.88 58.88,-58.88 32.427,0 58.88,26.453 58.88,58.88 0,32.427 -26.454,58.88 -58.88,58.88 z m 0,-99.84 c -23.04,0 -41.813,18.773 -41.813,41.813 0,23.04 18.773,41.813 41.813,41.813 23.04,0 41.813,-18.773 41.813,-41.813 0,-23.04 -18.773,-41.813 -41.813,-41.813 z"
   id="path6" />
</svg>
